<?xml version="1.0" ?><svg width="32" height="32" viewBox="0 0 96 96" xmlns="http://www.w3.org/2000/svg"><title/><g id="Weight"><path d="M32,52A16,16,0,1,0,48,36,16,16,0,0,0,32,52Zm31,0A15,15,0,1,1,48,37,15,15,0,0,1,63,52Z"/><path d="M48,42l-1,8v.28A2,2,0,0,0,46,52a2,2,0,0,0,4,0,2,2,0,0,0-1-1.72V50Z"/><path d="M74.5,16h-52A2.5,2.5,0,0,0,22,21,6.52,6.52,0,0,0,28.5,27H40v3H32.89a6.45,6.45,0,0,0-6.42,5.53l-4.7,31A6.5,6.5,0,0,0,27.4,74l1.45,3.34A4.48,4.48,0,0,0,33,80H62.89A4.48,4.48,0,0,0,67,77.29L68.47,74a6.48,6.48,0,0,0,5.62-7.42l-4.69-31A6.46,6.46,0,0,0,63,30H55V27H67.5A6.49,6.49,0,0,0,74,21h.53a2.5,2.5,0,0,0,0-5ZM66.1,76.89A3.51,3.51,0,0,1,62.89,79H33a3.49,3.49,0,0,1-3.21-2.11L28.51,74H67.35Zm2.31-41.21,4.7,31A5.5,5.5,0,0,1,67.67,73H28.2a5.5,5.5,0,0,1-5.44-6.32l4.7-31A5.46,5.46,0,0,1,32.89,31H63A5.47,5.47,0,0,1,68.41,35.68ZM54,30H41V27H54Zm13.5-4h-39A5.52,5.52,0,0,1,23,21H73A5.52,5.52,0,0,1,67.5,26Zm7-6h-52a1.5,1.5,0,0,1,0-3h52a1.5,1.5,0,0,1,0,3Z"/></g></svg>